<svg id="Layer_1" data-name="Layer 1" xmlns="http://www.w3.org/2000/svg" viewBox="0 0 1920 621.65"><defs><style>.cls-1{fill:#0a85ad;}</style></defs><path d="M49,369.16V533.07A40.69,40.69,0,0,1,8.34,573.76h0V178.3H49v67.63c15.47-53.3,52.74-73.36,91.13-73.36,71.64,0,118.07,62.47,118.07,135.26,0,72.21-46.43,134.11-115.2,134.11C104.63,441.94,65.07,421.31,49,369.16Zm86.55,55.6c43.55,0,77.37-26.95,77.37-116.93,0-91.69-32.67-118.06-79.67-118.06C87.43,189.77,49,226.45,49,307.26S87.43,424.76,135.58,424.76Z"/><path d="M469.7,390.94c-10.89,24.07-39,51-85.39,51-44.71,0-72.78-21.78-72.78-60.18,0-49.28,33.23-67.06,87.1-77.37l71.07-13.75V265.42c0-52.73-28.08-74.51-64.19-74.51s-65.91,20.63-68.2,57.89h-6.88C332.15,196.65,370,172,415.84,172c68.2,0,94,44.71,94,93.42v170.8H469.7Zm0-25.22v-63l-47,8.59c-43,8-66.49,23.5-66.49,65.91,0,29.23,15.48,47.58,47,47.58C438.75,424.76,469.7,389.22,469.7,365.72Z"/><path d="M735.63,172.57c56.74,0,87.12,36.68,87.12,85.4V436.22h-40.7V266.57c0-56.18-25.21-75.66-60.74-75.66-43,0-75.09,43-75.09,75.66V436.22H606.1V15h40.12V233.32C654.83,205.24,686.92,172.57,735.63,172.57Z"/><path d="M958.57,436.22H918.45V15h40.12Z"/><path d="M1097.27,96.34h-40.13V54.51h40.13Zm0,339.88h-40.13V178.3h40.13Z"/><path d="M1215.89,231.6c0,28.67,20.07,42.41,61.9,58.47,49.29,18.91,75.08,36.1,75.08,79.66,0,47-40.11,72.21-88.83,72.21-56.74,0-88.84-28.08-92.84-77.94h7.44c5.16,45.27,36.11,63,80.81,63,36.68,0,57.31-18.33,57.31-44.7,0-28.67-14.33-37.83-63-56.74-47-18.92-70.5-39-70.5-80.24,0-40.12,29.81-72.79,78-72.79,53.31,0,83.68,32.67,84.83,78.51h-8c-4-43.55-32.66-64.17-70.49-64.17C1237.1,186.91,1215.89,203,1215.89,231.6Z"/><path d="M1611.34,357.7h8c-3.44,48.14-43,84.82-97.44,84.82-70.49,0-116.35-49.86-116.35-132.4,0-76.8,44.14-137.55,118.07-137.55,55,0,91.13,41.84,94,88.26h-8c-4.58-44.12-38.39-71.06-81.38-71.06-46.41,0-77.94,28.65-77.94,118.63,0,92.85,36.11,116.93,77.94,116.93S1607.91,401.25,1611.34,357.7Z"/><path d="M1824.55,172.57c56.73,0,87.11,36.68,87.11,85.4V436.22H1871V266.57c0-56.18-25.22-75.66-60.75-75.66-43,0-75.08,43-75.08,75.66V436.22H1695V55.08A40.12,40.12,0,0,1,1735.14,15h0V233.32C1743.74,205.24,1775.83,172.57,1824.55,172.57Z"/><path class="cls-1" d="M782.88,594.47h-13.2v-36h-37v36H719.5V514.69h13.14v32.63h37V514.69h13.2Z"/><path class="cls-1" d="M900.15,554.47q0,19.49-9.81,30.29t-27.79,10.8q-18.19,0-27.95-10.72t-9.75-30.48q0-19.75,9.81-30.34t28-10.58q17.93,0,27.7,10.75T900.15,554.47Zm-61.34,0q0,14.73,6,22.35t17.75,7.61q11.72,0,17.67-7.53t6-22.43q0-14.69-5.91-22.26t-17.62-7.59q-11.82,0-17.83,7.59T838.81,554.47Z"/><path class="cls-1" d="M976.91,594.47,953.6,527.84h-.44q.95,14.85.94,27.83v38.8H942.17V514.69H960.7L983,578.15h.33l23-63.46h18.57v79.78h-12.64V555q0-6,.3-15.5t.53-11.57h-.44l-24.13,66.52Z"/><path class="cls-1" d="M1116.28,594.47h-45.46V514.69h45.46v11H1084v21.72h30.28v10.91H1084v25h32.32Z"/><path class="cls-1" d="M1204.75,572.8q0,10.65-7.75,16.7t-21.38,6.06q-13.63,0-22.32-4.2V579a60.72,60.72,0,0,0,11.68,4,49.44,49.44,0,0,0,11.51,1.48q7.82,0,11.52-2.95a9.58,9.58,0,0,0,3.71-7.91,9.92,9.92,0,0,0-3.41-7.59q-3.4-3.11-14.07-7.36-11-4.43-15.5-10.1a21.28,21.28,0,0,1-4.51-13.64q0-10,7.15-15.72t19.18-5.72a56.65,56.65,0,0,1,23,5l-4.18,10.64q-10.71-4.49-19.13-4.48-6.37,0-9.67,2.76a9,9,0,0,0-3.3,7.28,10.19,10.19,0,0,0,1.32,5.32,13.43,13.43,0,0,0,4.34,4.18,74,74,0,0,0,10.89,5.18q8.84,3.66,13,6.82a20,20,0,0,1,6,7.15A21.26,21.26,0,0,1,1204.75,572.8Z"/></svg>