<svg width="1920" height="621.65" xmlns="http://www.w3.org/2000/svg" data-name="Layer 1">

 <g>
  <title>Layer 1</title>
  <path fill="#ffffff" id="svg_1" d="m49,369.16l0,163.91a40.69,40.69 0 0 1 -40.66,40.69l0,0l0,-395.46l40.66,0l0,67.63c15.47,-53.3 52.74,-73.36 91.13,-73.36c71.64,0 118.07,62.47 118.07,135.26c0,72.21 -46.43,134.11 -115.2,134.11c-38.37,0 -77.93,-20.63 -94,-72.78zm86.55,55.6c43.55,0 77.37,-26.95 77.37,-116.93c0,-91.69 -32.67,-118.06 -79.67,-118.06c-45.82,0 -84.25,36.68 -84.25,117.49s38.43,117.5 86.58,117.5l-0.03,0z"/>
  <path fill="#ffffff" id="svg_2" d="m469.7,390.94c-10.89,24.07 -39,51 -85.39,51c-44.71,0 -72.78,-21.78 -72.78,-60.18c0,-49.28 33.23,-67.06 87.1,-77.37l71.07,-13.75l0,-25.22c0,-52.73 -28.08,-74.51 -64.19,-74.51s-65.91,20.63 -68.2,57.89l-6.88,0c1.72,-52.15 39.57,-76.8 85.41,-76.8c68.2,0 94,44.71 94,93.42l0,170.8l-40.14,0l0,-45.28zm0,-25.22l0,-63l-47,8.59c-43,8 -66.49,23.5 -66.49,65.91c0,29.23 15.48,47.58 47,47.58c35.54,-0.04 66.49,-35.58 66.49,-59.08z"/>
  <path fill="#ffffff" id="svg_3" d="m735.63,172.57c56.74,0 87.12,36.68 87.12,85.4l0,178.25l-40.7,0l0,-169.65c0,-56.18 -25.21,-75.66 -60.74,-75.66c-43,0 -75.09,43 -75.09,75.66l0,169.65l-40.12,0l0,-421.22l40.12,0l0,218.32c8.61,-28.08 40.7,-60.75 89.41,-60.75z"/>
  <path fill="#ffffff" id="svg_4" d="m958.57,436.22l-40.12,0l0,-421.22l40.12,0l0,421.22z"/>
  <path fill="#ffffff" id="svg_5" d="m1097.27,96.34l-40.13,0l0,-41.83l40.13,0l0,41.83zm0,339.88l-40.13,0l0,-257.92l40.13,0l0,257.92z"/>
  <path fill="#ffffff" id="svg_6" d="m1215.89,231.6c0,28.67 20.07,42.41 61.9,58.47c49.29,18.91 75.08,36.1 75.08,79.66c0,47 -40.11,72.21 -88.83,72.21c-56.74,0 -88.84,-28.08 -92.84,-77.94l7.44,0c5.16,45.27 36.11,63 80.81,63c36.68,0 57.31,-18.33 57.31,-44.7c0,-28.67 -14.33,-37.83 -63,-56.74c-47,-18.92 -70.5,-39 -70.5,-80.24c0,-40.12 29.81,-72.79 78,-72.79c53.31,0 83.68,32.67 84.83,78.51l-8,0c-4,-43.55 -32.66,-64.17 -70.49,-64.17c-30.5,0.04 -51.71,16.13 -51.71,44.73z"/>
  <path fill="#ffffff" id="svg_7" d="m1611.34,357.7l8,0c-3.44,48.14 -43,84.82 -97.44,84.82c-70.49,0 -116.35,-49.86 -116.35,-132.4c0,-76.8 44.14,-137.55 118.07,-137.55c55,0 91.13,41.84 94,88.26l-8,0c-4.58,-44.12 -38.39,-71.06 -81.38,-71.06c-46.41,0 -77.94,28.65 -77.94,118.63c0,92.85 36.11,116.93 77.94,116.93s79.67,-24.08 83.1,-67.63z"/>
  <path fill="#ffffff" id="svg_8" d="m1824.55,172.57c56.73,0 87.11,36.68 87.11,85.4l0,178.25l-40.66,0l0,-169.65c0,-56.18 -25.22,-75.66 -60.75,-75.66c-43,0 -75.08,43 -75.08,75.66l0,169.65l-40.17,0l0,-381.14a40.12,40.12 0 0 1 40.14,-40.08l0,0l0,218.32c8.6,-28.08 40.69,-60.75 89.41,-60.75z"/>
 </g>
</svg>